# xmcd CD database file
#
# Track frame offsets:
#	150
#	4972
#	27230
#	50804
#	68441
#	87774
#	101352
#	133416
#	156628
#	176117
#
# Disc length: 2826 seconds
#
# Revision: 1
# Processed by: cddbd v1.5.2PL0 Copyright (c) Steve Scherf et al.
# Submitted via: CDex 1.40Release
#
DISCID=870b080a
DTITLE=Colafluid - One
DYEAR=2002
DGENRE=
TTITLE0=Intro
TTITLE1=Summernitesong
TTITLE2=People Say
TTITLE3=Baby Said
TTITLE4=Ellesdee
TTITLE5=Feel
TTITLE6=What Tomorrow Brings
TTITLE7=Insane
TTITLE8=Sinner
TTITLE9=Live
EXTD=YEAR: 2002
EXTT0=
EXTT1=
EXTT2=
EXTT3=
EXTT4=
EXTT5=
EXTT6=
EXTT7=
EXTT8=
EXTT9=
PLAYORDER=
